/* XPM */
static char * icon_16x16_xpm[] = {
"16 16 92 2",
"  	c None",
". 	c #F0AF31",
"+ 	c #AA751F",
"@ 	c #7B591A",
"# 	c #735216",
"$ 	c #92641A",
"% 	c #D79426",
"& 	c #BD8F2B",
"* 	c #3C2A0B",
"= 	c #000000",
"- 	c #231907",
"; 	c #937221",
"> 	c #BA9431",
", 	c #130D03",
"' 	c #040503",
") 	c #4C3E15",
"! 	c #6E5E20",
"~ 	c #5E5420",
"{ 	c #151406",
"] 	c #040201",
"^ 	c #80661F",
"/ 	c #EDD152",
"( 	c #372B0D",
"_ 	c #13130C",
": 	c #A9872F",
"< 	c #825F1A",
"[ 	c #443411",
"} 	c #7D6626",
"| 	c #7C6D2A",
"1 	c #140F05",
"2 	c #B39C38",
"3 	c #A69539",
"4 	c #000001",
"5 	c #997E34",
"6 	c #80621C",
"7 	c #130D05",
"8 	c #645823",
"9 	c #7C6D27",
"0 	c #0D0E08",
"a 	c #D7BB46",
"b 	c #28250E",
"c 	c #191609",
"d 	c #1F1908",
"e 	c #151206",
"f 	c #090803",
"g 	c #403917",
"h 	c #775C1B",
"i 	c #0F0D04",
"j 	c #DBB73D",
"k 	c #28270F",
"l 	c #423613",
"m 	c #886C20",
"n 	c #C5A93A",
"o 	c #191709",
"p 	c #3A3315",
"q 	c #977621",
"r 	c #010000",
"s 	c #A97E26",
"t 	c #817129",
"u 	c #130E05",
"v 	c #BDA238",
"w 	c #030301",
"x 	c #524A22",
"y 	c #DAB133",
"z 	c #25200A",
"A 	c #1D1204",
"B 	c #BE8F2A",
"C 	c #846821",
"D 	c #382B0F",
"E 	c #534118",
"F 	c #C7B146",
"G 	c #030401",
"H 	c #090805",
"I 	c #8E833E",
"J 	c #947D2A",
"K 	c #060602",
"L 	c #0D0802",
"M 	c #635019",
"N 	c #887528",
"O 	c #7D6F2B",
"P 	c #3C391A",
"Q 	c #4F4A22",
"R 	c #8A6F24",
"S 	c #1F1909",
"T 	c #070502",
"U 	c #554C20",
"V 	c #BB8C2B",
"W 	c #77581A",
"X 	c #4E3A11",
"Y 	c #483912",
"Z 	c #644A18",
"` 	c #9B7526",
"                                ",
"                                ",
"          . + @ # $ %           ",
"        & * = = = = - ;         ",
"      > , = ' ) ! ~ { ] ^       ",
"    / ( = _ : < [ } | = 1 2     ",
"    3 = 4 5 6 = = = 7 = = 8     ",
"    9 = 0 a b = c d e f = g     ",
"    h = i j k = l m n o = p     ",
"    q = r s t = = u v w = x     ",
"    y z = A B C D E F G H I     ",
"      J K = L M N O P = Q       ",
"        R S = = = = T U         ",
"          V W X Y Z `           ",
"                                ",
"                                "};
