/* XPM */
static char * icon_32x32_xpm[] = {
"32 32 252 2",
"  	c None",
". 	c #FFB831",
"+ 	c #FFB731",
"@ 	c #FFBB32",
"# 	c #FFBA31",
"$ 	c #FCAA2D",
"% 	c #E09F2C",
"& 	c #B48126",
"* 	c #966A1F",
"= 	c #8F621D",
"- 	c #9E6E1F",
"; 	c #BF8625",
"> 	c #E39725",
", 	c #FFAD2B",
"' 	c #FFCE3F",
") 	c #F9B02F",
"! 	c #975F17",
"~ 	c #3B280B",
"{ 	c #0B0803",
"] 	c #000000",
"^ 	c #170F05",
"/ 	c #614313",
"( 	c #CE9128",
"_ 	c #FFC538",
": 	c #FFC03C",
"< 	c #BA8521",
"[ 	c #2E2109",
"} 	c #090503",
"| 	c #75591B",
"1 	c #F1BE37",
"2 	c #FFC836",
"3 	c #8A6619",
"4 	c #050401",
"5 	c #3A280C",
"6 	c #DBA732",
"7 	c #FFD549",
"8 	c #876219",
"9 	c #090A05",
"0 	c #1F1D0B",
"a 	c #27230B",
"b 	c #1A190A",
"c 	c #020200",
"d 	c #271D0B",
"e 	c #DFB134",
"f 	c #FFDC55",
"g 	c #B98D29",
"h 	c #040301",
"i 	c #282714",
"j 	c #917729",
"k 	c #DFB73C",
"l 	c #F3CF47",
"m 	c #F1C43E",
"n 	c #EED656",
"o 	c #CEBC4B",
"p 	c #867224",
"q 	c #151205",
"r 	c #4B3812",
"s 	c #F8CE42",
"t 	c #F7CF43",
"u 	c #271D06",
"v 	c #000002",
"w 	c #666132",
"x 	c #F2BF3D",
"y 	c #EFA428",
"z 	c #8E611A",
"A 	c #49330F",
"B 	c #352009",
"C 	c #593D14",
"D 	c #C69D3A",
"E 	c #FFF65E",
"F 	c #3F3E18",
"G 	c #9E8129",
"H 	c #FFED61",
"I 	c #977925",
"J 	c #6C6B3E",
"K 	c #FFD044",
"L 	c #C48E21",
"M 	c #231C06",
"N 	c #130700",
"O 	c #CFA641",
"P 	c #45411E",
"Q 	c #291D0A",
"R 	c #EBD453",
"S 	c #FDE95D",
"T 	c #362B0C",
"U 	c #333425",
"V 	c #F5C64C",
"W 	c #DFA129",
"X 	c #1A1506",
"Y 	c #2A1907",
"Z 	c #191005",
"` 	c #AB9339",
" .	c #E0C243",
"..	c #070501",
"+.	c #A49349",
"@.	c #FFC73A",
"#.	c #746320",
"$.	c #736127",
"%.	c #FFEC5D",
"&.	c #B9A039",
"*.	c #131511",
"=.	c #E4C751",
"-.	c #F9CF42",
";.	c #303113",
">.	c #453B16",
",.	c #FDEB5D",
"'.	c #FFE14F",
").	c #9E8A30",
"!.	c #2D2F17",
"~.	c #F8D64C",
"{.	c #EDD452",
"].	c #1B1C0D",
"^.	c #1A180B",
"/.	c #1E1D0C",
"(.	c #1A1608",
"_.	c #181307",
":.	c #161206",
"<.	c #171307",
"[.	c #161308",
"}.	c #010100",
"|.	c #30280F",
"1.	c #EFDC5B",
"2.	c #FFCF41",
"3.	c #9B7C25",
"4.	c #313013",
"5.	c #FAD044",
"6.	c #ECD54E",
"7.	c #1A1B0C",
"8.	c #473C17",
"9.	c #D0AC3D",
"0.	c #E7B635",
"a.	c #E4B034",
"b.	c #E7BE3D",
"c.	c #E5C946",
"d.	c #83772D",
"e.	c #040302",
"f.	c #2D260E",
"g.	c #EDD558",
"h.	c #FFB832",
"i.	c #AB8023",
"j.	c #1D1908",
"k.	c #ECB135",
"l.	c #FAD649",
"m.	c #323011",
"n.	c #180E04",
"o.	c #2F2408",
"p.	c #3A2B0B",
"q.	c #E8C243",
"r.	c #DBBF41",
"s.	c #060501",
"t.	c #372D11",
"u.	c #F4DE5B",
"v.	c #CE9E2D",
"w.	c #030200",
"x.	c #BE7E1F",
"y.	c #FFDE4B",
"z.	c #78732E",
"A.	c #080402",
"B.	c #E0B83F",
"C.	c #D7C144",
"D.	c #574D24",
"E.	c #EEBE37",
"F.	c #1C1908",
"G.	c #51340D",
"H.	c #FCBD39",
"I.	c #E0D251",
"J.	c #0D0703",
"K.	c #E0BA41",
"L.	c #D7C043",
"M.	c #070601",
"N.	c #8A7D3E",
"O.	c #FFCD39",
"P.	c #6E601B",
"Q.	c #010000",
"R.	c #956016",
"S.	c #FFD641",
"T.	c #C49F34",
"U.	c #23190A",
"V.	c #070301",
"W.	c #DFBA43",
"X.	c #D8C446",
"Y.	c #070602",
"Z.	c #100D08",
"`.	c #CBB955",
" +	c #DAB738",
".+	c #0A0904",
"++	c #080400",
"@+	c #966016",
"#+	c #FFC63A",
"$+	c #EBBB3A",
"%+	c #80611F",
"&+	c #34220B",
"*+	c #190E04",
"=+	c #1A1004",
"-+	c #44290C",
";+	c #EFC84D",
">+	c #DFD45A",
",+	c #070502",
"'+	c #625A2E",
")+	c #FFCD42",
"!+	c #7B6D27",
"~+	c #50370D",
"{+	c #C2952A",
"]+	c #FDD446",
"^+	c #FFDA4C",
"/+	c #F2C846",
"(+	c #F2CB4A",
"_+	c #F9DC56",
":+	c #DFD361",
"<+	c #868039",
"[+	c #040200",
"}+	c #15140D",
"|+	c #C7BF60",
"1+	c #F3CB45",
"2+	c #3E3B15",
"3+	c #29200A",
"4+	c #504717",
"5+	c #635A1E",
"6+	c #59541E",
"7+	c #363718",
"8+	c #0E0E07",
"9+	c #020202",
"0+	c #938A3E",
"a+	c #E5BF3F",
"b+	c #373313",
"c+	c #020203",
"d+	c #827837",
"e+	c #E7B93C",
"f+	c #665620",
"g+	c #000001",
"h+	c #1C1B0E",
"i+	c #9C8F3D",
"j+	c #F0BC3A",
"k+	c #B58D2D",
"l+	c #433915",
"m+	c #040604",
"n+	c #6F5921",
"o+	c #D5AA3A",
"p+	c #EFB234",
"q+	c #C59931",
"r+	c #916C20",
"s+	c #624917",
"t+	c #473A13",
"u+	c #413812",
"v+	c #504218",
"w+	c #745A1F",
"x+	c #A17D29",
"y+	c #D9A234",
"z+	c #FAA724",
"A+	c #F1AC2E",
"B+	c #F0B230",
"C+	c #FDB531",
"                                                                ",
"                                                                ",
"                                                                ",
"                            . + @ #                             ",
"                      + $ % & * = - ; > ,                       ",
"                  ' ) ! ~ { ] ] ] ] ] ^ / ( _                   ",
"                : < [ ] ] ] ] ] ] ] ] ] ] } | 1                 ",
"              2 3 4 ] ] ] ] ] ] ] ] ] ] ] ] ] 5 6               ",
"            7 8 ] ] ] ] ] ] ] 9 0 a b c ] ] ] ] d e             ",
"          f g h ] ] ] ] ] i j k l m n o p q ] ] ] r s           ",
"          t u ] ] ] ] v w x y z A B C D E F ] ] ] ] G           ",
"        H I ] ] ] ] ] J K L M ] ] ] ] N O P ] ] ] ] Q R         ",
"        S T ] ] ] ] U V W X ] ] ] ] ] ] Y Z ] ] ] ] ] `         ",
"         ...] ] ] v +.@.#.] ] ] ] ] ] ] ] ] ] ] ] ] ] $.        ",
"      %.&.] ] ] ] *.=.-.;.] ] ] ] ] ] ] ] ] ] ] ] ] ] >.,.      ",
"      '.).] ] ] ] !.~.{.].] ] ] ^./.(._.:.<.[.}.] ] ] |.1.      ",
"      2.3.] ] ] ] 4.5.6.7.] ] ] 8.9.0.a.b.c.d.e.] ] ] f.g.      ",
"      h.i.] ] ] ] j.k.l.m.] ] ] ] n.o.p.q.r.s.] ] ] ] t.u.      ",
"        v.}.] ] ] w.x.y.z.] ] ] ] ] ] A.B.C.s.] ] ] ] D.        ",
"        E.F.] ] ] ] G.H.I.b ] ] ] ] ] J.K.L.M.] ] ] ] N.        ",
"        O.P.] ] ] ] Q.R.S.T.U.] ] ] ] V.W.X.Y.] ] ] Z.`.        ",
"           +.+] ] ] ] ++@+#+$+%+&+*+=+-+;+>+,+] ] ] '+          ",
"          )+!+] ] ] ] ] ] ~+{+]+^+/+(+_+:+<+[+] ] }+|+          ",
"            1+2+] ] ] ] ] ] ] 3+4+5+6+7+8+] ] ] 9+0+            ",
"              a+b+] ] ] ] ] ] ] ] ] ] ] ] ] ] c+d+              ",
"                e+f+g+] ] ] ] ] ] ] ] ] ] ] h+i+                ",
"                  j+k+l+m+] ] ] ] ] ] ] ^.n+o+                  ",
"                      p+q+r+s+t+u+v+w+x+y+                      ",
"                            z+A+B+C+                            ",
"                                                                ",
"                                                                ",
"                                                                "};
